<?xml version="1.0" encoding="utf-8"?>
<!-- Generator: Adobe Illustrator 18.1.1, SVG Export Plug-In . SVG Version: 6.00 Build 0)  -->
<!DOCTYPE svg PUBLIC "-//W3C//DTD SVG 1.1//EN" "http://www.w3.org/Graphics/SVG/1.1/DTD/svg11.dtd">
<svg version="1.1" id="Layer_1" xmlns="http://www.w3.org/2000/svg" xmlns:xlink="http://www.w3.org/1999/xlink" x="0px" y="0px"
	 viewBox="0 0 500 300" enable-background="new 0 0 500 300" xml:space="preserve">
<g>
	<circle fill="#3D8BB1" cx="177.2" cy="63.8" r="14.4"/>
	<g>
		<path fill="#FFFFFF" d="M173.2,68.3c0.9-0.8,1.6-1.5,2.4-2.1c0.7-0.6,1.3-1.2,1.8-1.8c0.5-0.5,0.9-1.1,1.1-1.5s0.4-0.9,0.4-1.4
			c0-0.6-0.2-1.1-0.5-1.4c-0.4-0.4-0.9-0.5-1.6-0.5c-0.5,0-0.9,0.1-1.4,0.4c-0.4,0.2-0.8,0.5-1.1,0.9l-1.1-1.1
			c0.5-0.5,1.1-1,1.7-1.3s1.3-0.5,2.1-0.5c0.6,0,1.1,0.1,1.6,0.2c0.5,0.2,0.9,0.4,1.2,0.7c0.4,0.3,0.6,0.6,0.8,1.1
			c0.2,0.4,0.3,0.9,0.3,1.4c0,0.5-0.1,1-0.4,1.5c-0.2,0.5-0.6,1.1-1,1.5c-0.4,0.5-0.9,1.1-1.5,1.6c-0.6,0.5-1.2,1.1-1.8,1.7
			c0.4,0,0.6-0.1,1.1-0.1c0.4,0,0.7-0.1,1-0.1h3.2v1.7h-8.2V68.3z"/>
	</g>
</g>
<g>
	<circle fill="#DA6F29" cx="75.5" cy="134.1" r="14.4"/>
	<g>
		<path fill="#FFFFFF" d="M71.5,138.7c0.9-0.8,1.6-1.5,2.4-2.1c0.7-0.6,1.3-1.2,1.8-1.8s0.9-1.1,1.1-1.5c0.2-0.5,0.4-0.9,0.4-1.4
			c0-0.6-0.2-1.1-0.5-1.4c-0.4-0.4-0.9-0.5-1.6-0.5c-0.5,0-0.9,0.1-1.4,0.4c-0.4,0.2-0.8,0.5-1.1,0.9l-1.1-1.1
			c0.5-0.5,1.1-1,1.7-1.3s1.3-0.5,2.1-0.5c0.6,0,1.1,0.1,1.6,0.2c0.5,0.2,0.9,0.4,1.2,0.7c0.4,0.3,0.6,0.6,0.8,1.1
			c0.2,0.4,0.3,0.9,0.3,1.4c0,0.5-0.1,1-0.4,1.5c-0.2,0.5-0.6,1.1-1,1.5c-0.4,0.5-0.9,1.1-1.5,1.6c-0.6,0.5-1.2,1.1-1.8,1.7
			c0.4,0,0.6-0.1,1.1-0.1c0.4,0,0.7-0.1,1-0.1h3.2v1.7h-8.2V138.7z"/>
	</g>
</g>
<g>
	<circle fill="#3D8BB1" cx="249" cy="63.8" r="14.4"/>
	<g>
		<path fill="#FFFFFF" d="M245.7,66.7c0.4,0.4,0.8,0.6,1.3,0.9c0.5,0.2,1.1,0.4,1.6,0.4c0.7,0,1.3-0.2,1.7-0.5
			c0.5-0.3,0.7-0.7,0.7-1.2c0-0.3-0.1-0.5-0.2-0.8c-0.1-0.2-0.4-0.4-0.6-0.6c-0.3-0.2-0.6-0.3-1.2-0.4c-0.5-0.1-1.1-0.1-1.8-0.1
			v-1.5c0.6,0,1.1-0.1,1.5-0.1c0.4-0.1,0.8-0.2,1.1-0.4c0.2-0.2,0.5-0.4,0.6-0.6c0.1-0.2,0.2-0.5,0.2-0.7c0-0.5-0.2-0.8-0.5-1.1
			c-0.4-0.2-0.8-0.4-1.4-0.4c-0.5,0-0.9,0.1-1.4,0.3c-0.4,0.2-0.8,0.5-1.2,0.8l-1.1-1.2c0.5-0.4,1.1-0.8,1.7-1
			c0.6-0.2,1.3-0.4,2-0.4c0.6,0,1.1,0.1,1.6,0.2s0.9,0.3,1.2,0.6c0.4,0.3,0.6,0.6,0.8,0.9c0.2,0.4,0.3,0.8,0.3,1.2
			c0,0.6-0.2,1.2-0.6,1.6c-0.4,0.4-0.9,0.8-1.6,1v0.1c0.4,0.1,0.7,0.2,1.1,0.4c0.3,0.2,0.6,0.4,0.8,0.6c0.2,0.2,0.4,0.5,0.6,0.8
			c0.1,0.3,0.2,0.6,0.2,1c0,0.5-0.1,1-0.4,1.4c-0.2,0.4-0.5,0.8-0.9,1c-0.4,0.3-0.8,0.5-1.4,0.6c-0.5,0.1-1.1,0.2-1.6,0.2
			c-0.9,0-1.8-0.2-2.5-0.5c-0.7-0.3-1.2-0.7-1.6-1.1L245.7,66.7z"/>
	</g>
</g>
<g>
	<circle fill="#DA6F29" cx="75.5" cy="173" r="14.4"/>
	<g>
		<path fill="#FFFFFF" d="M72.3,175.9c0.4,0.4,0.8,0.6,1.3,0.9c0.5,0.2,1.1,0.4,1.6,0.4c0.7,0,1.3-0.2,1.7-0.5
			c0.5-0.3,0.7-0.7,0.7-1.2c0-0.3-0.1-0.5-0.2-0.8c-0.1-0.2-0.4-0.4-0.6-0.6c-0.3-0.2-0.6-0.3-1.2-0.4c-0.5-0.1-1.1-0.1-1.8-0.1
			v-1.5c0.6,0,1.1-0.1,1.5-0.1c0.4-0.1,0.8-0.2,1.1-0.4c0.2-0.2,0.5-0.4,0.6-0.6s0.2-0.5,0.2-0.7c0-0.5-0.2-0.8-0.5-1.1
			c-0.4-0.2-0.8-0.4-1.4-0.4c-0.5,0-0.9,0.1-1.4,0.3s-0.8,0.5-1.2,0.8l-1.1-1.2c0.5-0.4,1.1-0.8,1.7-1c0.6-0.2,1.3-0.4,2-0.4
			c0.6,0,1.1,0.1,1.6,0.2s0.9,0.3,1.2,0.6c0.4,0.3,0.6,0.6,0.8,0.9c0.2,0.4,0.3,0.8,0.3,1.2c0,0.6-0.2,1.2-0.6,1.6
			c-0.4,0.4-0.9,0.8-1.6,1v0.1c0.4,0.1,0.7,0.2,1.1,0.4c0.3,0.2,0.6,0.4,0.8,0.6c0.2,0.2,0.4,0.5,0.6,0.8c0.1,0.3,0.2,0.6,0.2,1
			c0,0.5-0.1,1-0.4,1.4c-0.2,0.4-0.5,0.8-0.9,1c-0.4,0.3-0.8,0.5-1.4,0.6c-0.5,0.1-1.1,0.2-1.6,0.2c-0.9,0-1.8-0.2-2.5-0.5
			c-0.7-0.3-1.2-0.7-1.6-1.1L72.3,175.9z"/>
	</g>
</g>
<g>
	<circle fill="#3D8BB1" cx="320.7" cy="63.8" r="14.4"/>
	<g>
		<path fill="#FFFFFF" d="M324.4,66.5h-1.6v2.9h-1.9v-2.9h-5.6v-1.4l5.2-7h2.4v6.8h1.6L324.4,66.5L324.4,66.5z M320.9,64.9v-2.7
			c0-0.4,0-0.7,0.1-1.1c0-0.4,0.1-0.8,0.1-1.1H321c-0.2,0.3-0.4,0.6-0.6,0.9c-0.2,0.3-0.4,0.6-0.6,0.9l-2.4,3.1L320.9,64.9
			L320.9,64.9z"/>
	</g>
</g>
<g>
	<circle fill="#DA6F29" cx="75.5" cy="211.8" r="14.4"/>
	<g>
		<path fill="#FFFFFF" d="M79.2,214.6h-1.6v2.9h-1.9v-2.9h-5.6v-1.4l5.2-7h2.4v6.8h1.6L79.2,214.6L79.2,214.6z M75.8,213v-2.7
			c0-0.4,0-0.7,0.1-1.1c0-0.4,0.1-0.8,0.1-1.1h-0.1c-0.2,0.3-0.4,0.6-0.6,0.9c-0.2,0.3-0.4,0.6-0.6,0.9l-2.4,3.1L75.8,213L75.8,213z
			"/>
	</g>
</g>
<g>
	<circle fill="#3D8BB1" cx="105.5" cy="63.8" r="14.4"/>
	<g>
		<path fill="#FFFFFF" d="M109.4,67.7v1.6h-7.8v-1.6h3.1v-7.4h-2.4V59c0.6-0.1,1.2-0.2,1.6-0.4c0.5-0.1,0.9-0.4,1.2-0.5h1.5v9.6
			L109.4,67.7L109.4,67.7z"/>
	</g>
</g>
<g>
	<circle fill="#DA6F29" cx="75.5" cy="95.3" r="14.4"/>
	<g>
		<path fill="#FFFFFF" d="M79.5,99.2v1.6h-7.8v-1.6h3.1v-7.4h-2.4v-1.3c0.6-0.1,1.2-0.2,1.6-0.4c0.5-0.1,0.9-0.4,1.2-0.5h1.5v9.6
			L79.5,99.2L79.5,99.2z"/>
	</g>
</g>
<g>
	<circle fill="#3D8BB1" cx="392.3" cy="64.2" r="14.4"/>
	<g>
		<path fill="#FFFFFF" d="M388.9,67.2c0.4,0.3,0.8,0.6,1.3,0.9s1.1,0.4,1.7,0.4c0.7,0,1.3-0.2,1.8-0.6s0.7-0.9,0.7-1.6
			c0-0.7-0.2-1.2-0.7-1.6c-0.5-0.4-1.1-0.6-1.8-0.6c-0.4,0-0.8,0.1-1.1,0.2s-0.7,0.3-1.1,0.5l-1-0.6l0.4-5.7h6.9V60h-5l-0.3,2.8
			c0.3-0.1,0.6-0.2,0.9-0.3s0.6-0.1,1-0.1c0.5,0,1.1,0.1,1.6,0.2s0.9,0.4,1.3,0.7s0.6,0.7,0.9,1.1c0.2,0.5,0.3,1,0.3,1.6
			c0,0.6-0.1,1.2-0.4,1.7c-0.2,0.5-0.6,0.9-1,1.3c-0.4,0.3-0.9,0.6-1.4,0.8c-0.5,0.2-1.1,0.3-1.7,0.3c-1,0-1.9-0.2-2.5-0.5
			c-0.7-0.3-1.2-0.7-1.7-1.1L388.9,67.2z"/>
	</g>
</g>
<g>
	<circle fill="#DA6F29" cx="75.5" cy="250.7" r="14.4"/>
	<g>
		<path fill="#FFFFFF" d="M72.1,253.7c0.4,0.3,0.8,0.6,1.3,0.9s1.1,0.4,1.7,0.4c0.7,0,1.3-0.2,1.8-0.6s0.7-0.9,0.7-1.6
			c0-0.7-0.2-1.2-0.7-1.6c-0.5-0.4-1.1-0.6-1.8-0.6c-0.4,0-0.8,0.1-1.1,0.2s-0.7,0.3-1.1,0.5l-1-0.6l0.4-5.7h6.9v1.8h-5l-0.3,2.8
			c0.3-0.1,0.6-0.2,0.9-0.3s0.6-0.1,1-0.1c0.5,0,1.1,0.1,1.6,0.2s0.9,0.4,1.3,0.7s0.6,0.7,0.9,1.1c0.2,0.5,0.3,1,0.3,1.6
			c0,0.6-0.1,1.2-0.4,1.7c-0.2,0.5-0.6,0.9-1,1.3c-0.4,0.3-0.9,0.6-1.4,0.8c-0.5,0.2-1.1,0.3-1.7,0.3c-1,0-1.9-0.2-2.5-0.5
			c-0.7-0.3-1.2-0.7-1.7-1.1L72.1,253.7z"/>
	</g>
</g>
<g>
	
		<line fill="none" stroke="#DA6F29" stroke-width="3" stroke-linecap="square" stroke-miterlimit="10" x1="105.9" y1="135.3" x2="394.1" y2="135.3"/>
	
		<line fill="none" stroke="#DA6F29" stroke-width="3" stroke-linecap="square" stroke-miterlimit="10" x1="105.9" y1="174.4" x2="394.1" y2="174.4"/>
	
		<line fill="none" stroke="#DA6F29" stroke-width="3" stroke-linecap="square" stroke-miterlimit="10" x1="105.9" y1="213.5" x2="394.1" y2="213.5"/>
	
		<line fill="none" stroke="#DA6F29" stroke-width="3" stroke-linecap="square" stroke-miterlimit="10" x1="394.1" y1="252.6" x2="105.9" y2="252.6"/>
	
		<line fill="none" stroke="#DA6F29" stroke-width="3" stroke-linecap="square" stroke-miterlimit="10" x1="105.9" y1="96.2" x2="394.1" y2="96.2"/>
	
		<line fill="none" stroke="#3D8BB1" stroke-width="3" stroke-linecap="square" stroke-miterlimit="10" x1="177.9" y1="252.6" x2="177.9" y2="96.2"/>
	
		<line fill="none" stroke="#3D8BB1" stroke-width="3" stroke-linecap="square" stroke-miterlimit="10" x1="250" y1="252.6" x2="250" y2="96.2"/>
	
		<line fill="none" stroke="#3D8BB1" stroke-width="3" stroke-linecap="square" stroke-miterlimit="10" x1="322.1" y1="252.6" x2="322.1" y2="96.2"/>
	
		<line fill="none" stroke="#3D8BB1" stroke-width="3" stroke-linecap="square" stroke-miterlimit="10" x1="105.9" y1="252.6" x2="105.9" y2="96.2"/>
	
		<line fill="none" stroke="#3D8BB1" stroke-width="3" stroke-linecap="square" stroke-miterlimit="10" x1="394.1" y1="96.2" x2="394.1" y2="252.6"/>
</g>
</svg>
